<mxfile host="Electron" modified="2024-01-27T15:38:09.583Z" agent="Mozilla/5.0 (X11; Linux x86_64) AppleWebKit/537.36 (KHTML, like Gecko) draw.io/22.1.2 Chrome/114.0.5735.289 Electron/25.9.8 Safari/537.36" etag="LF8hzfrKj1nZn_ioNDpe" version="22.1.2" type="device">
  <diagram name="Page-1" id="_EXZtGXymB0CU6RYTEbf">
    <mxGraphModel dx="2954" dy="1198" grid="1" gridSize="10" guides="1" tooltips="1" connect="1" arrows="1" fold="1" page="1" pageScale="1" pageWidth="850" pageHeight="1100" math="0" shadow="0">
      <root>
        <mxCell id="0" />
        <mxCell id="1" parent="0" />
      </root>
    </mxGraphModel>
  </diagram>
</mxfile>
